<?xml version="1.0" encoding="UTF-8" standalone="no"?>
<!DOCTYPE svg PUBLIC "-//W3C//DTD SVG 1.1//EN"
 "http://www.w3.org/Graphics/SVG/1.1/DTD/svg11.dtd">
<!-- Generated by graphviz version 8.1.0 (0)
 -->
<!-- Pages: 1 -->
<svg width="793pt" height="324pt"
 viewBox="0.00 0.00 792.50 324.00" xmlns="http://www.w3.org/2000/svg" xmlns:xlink="http://www.w3.org/1999/xlink">
<g id="graph0" class="graph" transform="scale(1 1) rotate(0) translate(4 320)">
<polygon fill="white" stroke="none" points="-4,4 -4,-320 788.5,-320 788.5,4 -4,4"/>
<!-- node1 -->
<g id="node1" class="node">
<title>node1</title>
<polygon fill="white" stroke="black" points="147.25,-231 0,-231 0,-195 147.25,-195 147.25,-231"/>
<text text-anchor="middle" x="73.62" y="-207.95" font-family="Times,serif" font-size="14.00">VTF i PAR (n=359305)</text>
</g>
<!-- node2 -->
<g id="node2" class="node">
<title>node2</title>
<polygon fill="white" stroke="black" points="338.38,-307.75 164.88,-307.75 164.88,-118.25 338.38,-118.25 338.38,-307.75"/>
<text text-anchor="middle" x="251.62" y="-290.45" font-family="Times,serif" font-size="14.00">VTF vid tert. sjukh. med dx:</text>
<text text-anchor="middle" x="251.62" y="-273.95" font-family="Times,serif" font-size="14.00"> aSAH (n=4891) </text>
<text text-anchor="middle" x="251.62" y="-257.45" font-family="Times,serif" font-size="14.00"> TBI (n=6296 </text>
<text text-anchor="middle" x="251.62" y="-240.95" font-family="Times,serif" font-size="14.00"> ICH (n=3509) </text>
<text text-anchor="middle" x="251.62" y="-224.45" font-family="Times,serif" font-size="14.00"> AIS (n=3017) </text>
<text text-anchor="middle" x="251.62" y="-207.95" font-family="Times,serif" font-size="14.00"> ABM (n=608) </text>
<text text-anchor="middle" x="251.62" y="-191.45" font-family="Times,serif" font-size="14.00"> SEP (n=432) </text>
<text text-anchor="middle" x="251.62" y="-174.95" font-family="Times,serif" font-size="14.00"> AVM (n=395) </text>
<text text-anchor="middle" x="251.62" y="-158.45" font-family="Times,serif" font-size="14.00"> ENC (n=226) </text>
<text text-anchor="middle" x="251.62" y="-141.95" font-family="Times,serif" font-size="14.00"> CVT (n=120) </text>
<text text-anchor="middle" x="251.62" y="-125.45" font-family="Times,serif" font-size="14.00"> (VTF n=19494)</text>
</g>
<!-- node1&#45;&gt;node2 -->
<g id="edge1" class="edge">
<title>node1&#45;&gt;node2</title>
<path fill="none" stroke="black" d="M147.68,-213C149.72,-213 151.76,-213 153.8,-213"/>
<polygon fill="black" stroke="black" points="153.73,-216.5 163.73,-213 153.73,-209.5 153.73,-216.5"/>
</g>
<!-- node3 -->
<g id="node3" class="node">
<title>node3</title>
<polygon fill="white" stroke="black" points="530.38,-307.75 356.88,-307.75 356.88,-118.25 530.38,-118.25 530.38,-307.75"/>
<text text-anchor="middle" x="443.62" y="-290.45" font-family="Times,serif" font-size="14.00">VTF vid tert. sjukh. med dx:</text>
<text text-anchor="middle" x="443.62" y="-273.95" font-family="Times,serif" font-size="14.00"> aSAH (n=4819) </text>
<text text-anchor="middle" x="443.62" y="-257.45" font-family="Times,serif" font-size="14.00"> TBI (n=6172 </text>
<text text-anchor="middle" x="443.62" y="-240.95" font-family="Times,serif" font-size="14.00"> ICH (n=3294) </text>
<text text-anchor="middle" x="443.62" y="-224.45" font-family="Times,serif" font-size="14.00"> AIS (n=2886) </text>
<text text-anchor="middle" x="443.62" y="-207.95" font-family="Times,serif" font-size="14.00"> ABM (n=585) </text>
<text text-anchor="middle" x="443.62" y="-191.45" font-family="Times,serif" font-size="14.00"> SEP (n=342) </text>
<text text-anchor="middle" x="443.62" y="-174.95" font-family="Times,serif" font-size="14.00"> AVM (n=214) </text>
<text text-anchor="middle" x="443.62" y="-158.45" font-family="Times,serif" font-size="14.00"> ENC (n=213) </text>
<text text-anchor="middle" x="443.62" y="-141.95" font-family="Times,serif" font-size="14.00"> CVT (n=98) </text>
<text text-anchor="middle" x="443.62" y="-125.45" font-family="Times,serif" font-size="14.00"> (VTF n=18623)</text>
</g>
<!-- node2&#45;&gt;node3 -->
<g id="edge2" class="edge">
<title>node2&#45;&gt;node3</title>
<path fill="none" stroke="black" d="M338.62,-213C340.97,-213 343.32,-213 345.67,-213"/>
<polygon fill="black" stroke="black" points="345.67,-216.5 355.67,-213 345.67,-209.5 345.67,-216.5"/>
</g>
<!-- node4 -->
<g id="node5" class="node">
<title>node4</title>
<polygon fill="red" stroke="black" points="369.12,-74 134.12,-74 134.12,0 369.12,0 369.12,-74"/>
<text text-anchor="middle" x="251.62" y="-56.7" font-family="Times,serif" font-size="14.00">Exkl.: </text>
<text text-anchor="middle" x="251.62" y="-40.2" font-family="Times,serif" font-size="14.00"> &quot;Dubletter&quot; (&gt;1 dx&#45;kriterier uppfyllda) </text>
<text text-anchor="middle" x="251.62" y="-23.7" font-family="Times,serif" font-size="14.00"> Icke&#45;första VTF för patienten </text>
<text text-anchor="middle" x="251.62" y="-7.2" font-family="Times,serif" font-size="14.00"> (n=871)</text>
</g>
<!-- node2&#45;&gt;node4 -->
<g id="edge3" class="edge">
<title>node2&#45;&gt;node4</title>
<path fill="none" stroke="black" d="M251.62,-117.87C251.62,-106.46 251.62,-95.22 251.62,-84.93"/>
<polygon fill="black" stroke="black" points="255.13,-85.18 251.62,-75.18 248.13,-85.18 255.13,-85.18"/>
</g>
<!-- node5 -->
<g id="node4" class="node">
<title>node5</title>
<polygon fill="green" stroke="black" points="784.5,-316 548.75,-316 548.75,-110 784.5,-110 784.5,-316"/>
<text text-anchor="middle" x="666.62" y="-298.7" font-family="Times,serif" font-size="14.00">Inkl.: Transfer prim. IVA &#45;&gt; tert. sjukh.:</text>
<text text-anchor="middle" x="666.62" y="-282.2" font-family="Times,serif" font-size="14.00"> aSAH (n=1741) </text>
<text text-anchor="middle" x="666.62" y="-265.7" font-family="Times,serif" font-size="14.00"> TBI (n=2273 </text>
<text text-anchor="middle" x="666.62" y="-249.2" font-family="Times,serif" font-size="14.00"> ICH (n=1348) </text>
<text text-anchor="middle" x="666.62" y="-232.7" font-family="Times,serif" font-size="14.00"> AIS (n=727) </text>
<text text-anchor="middle" x="666.62" y="-216.2" font-family="Times,serif" font-size="14.00"> ABM (n=311) </text>
<text text-anchor="middle" x="666.62" y="-199.7" font-family="Times,serif" font-size="14.00"> SEP (n=64) </text>
<text text-anchor="middle" x="666.62" y="-183.2" font-family="Times,serif" font-size="14.00"> AVM (n=29) </text>
<text text-anchor="middle" x="666.62" y="-166.7" font-family="Times,serif" font-size="14.00"> ENC (n=57) </text>
<text text-anchor="middle" x="666.62" y="-150.2" font-family="Times,serif" font-size="14.00"> CVT (n=40) </text>
<text text-anchor="middle" x="666.62" y="-133.7" font-family="Times,serif" font-size="14.00"> (VTF n=6590) </text>
<text text-anchor="middle" x="666.62" y="-117.2" font-family="Times,serif" font-size="14.00"> (Patient n=6590)</text>
</g>
<!-- node3&#45;&gt;node5 -->
<g id="edge4" class="edge">
<title>node3&#45;&gt;node5</title>
<path fill="none" stroke="black" d="M530.73,-213C532.92,-213 535.11,-213 537.3,-213"/>
<polygon fill="black" stroke="black" points="537.25,-216.5 547.25,-213 537.25,-209.5 537.25,-216.5"/>
</g>
<!-- node6 -->
<g id="node6" class="node">
<title>node6</title>
<polygon fill="red" stroke="black" points="498.5,-65.75 388.75,-65.75 388.75,-8.25 498.5,-8.25 498.5,-65.75"/>
<text text-anchor="middle" x="443.62" y="-48.45" font-family="Times,serif" font-size="14.00">Exkl.: </text>
<text text-anchor="middle" x="443.62" y="-31.95" font-family="Times,serif" font-size="14.00"> &quot;Icke&#45;transfers&quot; </text>
<text text-anchor="middle" x="443.62" y="-15.45" font-family="Times,serif" font-size="14.00"> (n=12033)</text>
</g>
<!-- node3&#45;&gt;node6 -->
<g id="edge5" class="edge">
<title>node3&#45;&gt;node6</title>
<path fill="none" stroke="black" d="M443.62,-117.87C443.62,-103.4 443.62,-89.2 443.62,-76.87"/>
<polygon fill="black" stroke="black" points="447.13,-77.13 443.62,-67.13 440.13,-77.13 447.13,-77.13"/>
</g>
</g>
</svg>
