<?xml version="1.0" encoding="UTF-8" standalone="no"?>
<!DOCTYPE svg PUBLIC "-//W3C//DTD SVG 1.1//EN"
 "http://www.w3.org/Graphics/SVG/1.1/DTD/svg11.dtd">
<!-- Generated by graphviz version 12.0.0 (0)
 -->
<!-- Pages: 1 -->
<svg width="468pt" height="515pt"
 viewBox="0.00 0.00 468.00 514.77" xmlns="http://www.w3.org/2000/svg" xmlns:xlink="http://www.w3.org/1999/xlink">
<g id="graph0" class="graph" transform="scale(1 1) rotate(0) translate(4 510.77)">
<polygon fill="white" stroke="none" points="-4,4 -4,-510.77 464,-510.77 464,4 -4,4"/>
<g id="clust1" class="cluster">
<title>clusteri (1)</title>
<path fill="none" stroke="black" d="M20,-8C20,-8 235,-8 235,-8 241,-8 247,-14 247,-20 247,-20 247,-356.95 247,-356.95 247,-362.95 241,-368.95 235,-368.95 235,-368.95 20,-368.95 20,-368.95 14,-368.95 8,-362.95 8,-356.95 8,-356.95 8,-20 8,-20 8,-14 14,-8 20,-8"/>
<text text-anchor="middle" x="227.38" y="-15.2" font-family="Times,serif" font-size="14.00">i (1)</text>
</g>
<g id="clust2" class="cluster">
<title>cluster43</title>
<path fill="none" stroke="black" d="M143,-376.95C143,-376.95 440,-376.95 440,-376.95 446,-376.95 452,-382.95 452,-388.95 452,-388.95 452,-486.77 452,-486.77 452,-492.77 446,-498.77 440,-498.77 440,-498.77 143,-498.77 143,-498.77 137,-498.77 131,-492.77 131,-486.77 131,-486.77 131,-388.95 131,-388.95 131,-382.95 137,-376.95 143,-376.95"/>
<text text-anchor="middle" x="437.25" y="-384.15" font-family="Times,serif" font-size="14.00">43</text>
</g>
<g id="clust3" class="cluster">
<title>cluster43 x 2</title>
<path fill="none" stroke="black" d="M267,-247.13C267,-247.13 425,-247.13 425,-247.13 431,-247.13 437,-253.13 437,-259.13 437,-259.13 437,-356.95 437,-356.95 437,-362.95 431,-368.95 425,-368.95 425,-368.95 267,-368.95 267,-368.95 261,-368.95 255,-362.95 255,-356.95 255,-356.95 255,-259.13 255,-259.13 255,-253.13 261,-247.13 267,-247.13"/>
<text text-anchor="middle" x="411.75" y="-254.33" font-family="Times,serif" font-size="14.00">43 x 2</text>
</g>
<!-- P_V -->
<g id="node1" class="node">
<title>P_V</title>
<ellipse fill="none" stroke="black" cx="63" cy="-450.11" rx="28.81" ry="40.66"/>
<text text-anchor="middle" x="63" y="-461.56" font-family="Times,serif" font-size="14.00">P_V</text>
<text text-anchor="middle" x="63" y="-445.06" font-family="Times,serif" font-size="14.00">~</text>
<text text-anchor="middle" x="63" y="-428.56" font-family="Times,serif" font-size="14.00">Beta</text>
</g>
<!-- V -->
<g id="node4" class="node">
<title>V</title>
<ellipse fill="none" stroke="black" cx="63" cy="-320.29" rx="47.38" ry="40.66"/>
<text text-anchor="middle" x="63" y="-331.74" font-family="Times,serif" font-size="14.00">V</text>
<text text-anchor="middle" x="63" y="-315.24" font-family="Times,serif" font-size="14.00">~</text>
<text text-anchor="middle" x="63" y="-298.74" font-family="Times,serif" font-size="14.00">Bernoulli</text>
</g>
<!-- P_V&#45;&gt;V -->
<g id="edge1" class="edge">
<title>P_V&#45;&gt;V</title>
<path fill="none" stroke="black" d="M63,-409.02C63,-397.48 63,-384.73 63,-372.61"/>
<polygon fill="black" stroke="black" points="66.5,-372.76 63,-362.76 59.5,-372.76 66.5,-372.76"/>
</g>
<!-- D -->
<g id="node2" class="node">
<title>D</title>
<ellipse fill="none" stroke="black" cx="192" cy="-81.16" rx="47.38" ry="40.66"/>
<text text-anchor="middle" x="192" y="-92.61" font-family="Times,serif" font-size="14.00">D</text>
<text text-anchor="middle" x="192" y="-76.11" font-family="Times,serif" font-size="14.00">~</text>
<text text-anchor="middle" x="192" y="-59.61" font-family="Times,serif" font-size="14.00">Bernoulli</text>
</g>
<!-- H -->
<g id="node3" class="node">
<title>H</title>
<ellipse fill="none" stroke="black" cx="149" cy="-198.48" rx="47.38" ry="40.66"/>
<text text-anchor="middle" x="149" y="-209.93" font-family="Times,serif" font-size="14.00">H</text>
<text text-anchor="middle" x="149" y="-193.43" font-family="Times,serif" font-size="14.00">~</text>
<text text-anchor="middle" x="149" y="-176.93" font-family="Times,serif" font-size="14.00">Bernoulli</text>
</g>
<!-- H&#45;&gt;D -->
<g id="edge9" class="edge">
<title>H&#45;&gt;D</title>
<path fill="none" stroke="black" d="M163.2,-159.4C166.61,-150.25 170.3,-140.35 173.87,-130.79"/>
<polygon fill="black" stroke="black" points="177.07,-132.21 177.29,-121.62 170.51,-129.76 177.07,-132.21"/>
</g>
<!-- V&#45;&gt;H -->
<g id="edge6" class="edge">
<title>V&#45;&gt;H</title>
<path fill="none" stroke="black" d="M87.41,-285.28C96.95,-272 107.99,-256.62 118.07,-242.57"/>
<polygon fill="black" stroke="black" points="120.65,-244.97 123.64,-234.8 114.97,-240.89 120.65,-244.97"/>
</g>
<!-- S -->
<g id="node5" class="node">
<title>S</title>
<ellipse fill="none" stroke="black" cx="184" cy="-320.29" rx="55.33" ry="40.66"/>
<text text-anchor="middle" x="184" y="-331.74" font-family="Times,serif" font-size="14.00">S</text>
<text text-anchor="middle" x="184" y="-315.24" font-family="Times,serif" font-size="14.00">~</text>
<text text-anchor="middle" x="184" y="-298.74" font-family="Times,serif" font-size="14.00">Categorical</text>
</g>
<!-- S&#45;&gt;D -->
<g id="edge10" class="edge">
<title>S&#45;&gt;D</title>
<path fill="none" stroke="black" d="M196.29,-280.55C199.84,-267.53 203.24,-252.83 205,-239.13 209.62,-203.29 208.07,-193.83 205,-157.82 204.31,-149.69 203.2,-141.13 201.92,-132.8"/>
<polygon fill="black" stroke="black" points="205.41,-132.45 200.34,-123.15 198.5,-133.58 205.41,-132.45"/>
</g>
<!-- S&#45;&gt;H -->
<g id="edge7" class="edge">
<title>S&#45;&gt;H</title>
<path fill="none" stroke="black" d="M172.54,-280.06C169.67,-270.24 166.55,-259.57 163.56,-249.31"/>
<polygon fill="black" stroke="black" points="166.95,-248.46 160.79,-239.84 160.24,-250.42 166.95,-248.46"/>
</g>
<!-- P_H_V0 -->
<g id="node6" class="node">
<title>P_H_V0</title>
<ellipse fill="none" stroke="black" cx="399" cy="-450.11" rx="44.72" ry="40.66"/>
<text text-anchor="middle" x="399" y="-461.56" font-family="Times,serif" font-size="14.00">P_H_V0</text>
<text text-anchor="middle" x="399" y="-445.06" font-family="Times,serif" font-size="14.00">~</text>
<text text-anchor="middle" x="399" y="-428.56" font-family="Times,serif" font-size="14.00">Beta</text>
</g>
<!-- P_H -->
<g id="node10" class="node">
<title>P_H</title>
<polygon fill="none" stroke="black" points="353.12,-349.04 262.88,-349.04 262.88,-291.54 353.12,-291.54 353.12,-349.04"/>
<text text-anchor="middle" x="308" y="-331.74" font-family="Times,serif" font-size="14.00">P_H</text>
<text text-anchor="middle" x="308" y="-315.24" font-family="Times,serif" font-size="14.00">~</text>
<text text-anchor="middle" x="308" y="-298.74" font-family="Times,serif" font-size="14.00">Deterministic</text>
</g>
<!-- P_H_V0&#45;&gt;P_H -->
<g id="edge3" class="edge">
<title>P_H_V0&#45;&gt;P_H</title>
<path fill="none" stroke="black" d="M375.09,-415.53C362.62,-398.02 347.34,-376.55 334.52,-358.54"/>
<polygon fill="black" stroke="black" points="337.59,-356.82 328.94,-350.7 331.88,-360.88 337.59,-356.82"/>
</g>
<!-- P_S -->
<g id="node7" class="node">
<title>P_S</title>
<ellipse fill="none" stroke="black" cx="184" cy="-450.11" rx="45.25" ry="40.66"/>
<text text-anchor="middle" x="184" y="-461.56" font-family="Times,serif" font-size="14.00">P_S</text>
<text text-anchor="middle" x="184" y="-445.06" font-family="Times,serif" font-size="14.00">~</text>
<text text-anchor="middle" x="184" y="-428.56" font-family="Times,serif" font-size="14.00">Dirichlet</text>
</g>
<!-- P_S&#45;&gt;S -->
<g id="edge2" class="edge">
<title>P_S&#45;&gt;S</title>
<path fill="none" stroke="black" d="M184,-409.02C184,-397.48 184,-384.73 184,-372.61"/>
<polygon fill="black" stroke="black" points="187.5,-372.76 184,-362.76 180.5,-372.76 187.5,-372.76"/>
</g>
<!-- P_H_V1 -->
<g id="node8" class="node">
<title>P_H_V1</title>
<ellipse fill="none" stroke="black" cx="292" cy="-450.11" rx="44.72" ry="40.66"/>
<text text-anchor="middle" x="292" y="-461.56" font-family="Times,serif" font-size="14.00">P_H_V1</text>
<text text-anchor="middle" x="292" y="-445.06" font-family="Times,serif" font-size="14.00">~</text>
<text text-anchor="middle" x="292" y="-428.56" font-family="Times,serif" font-size="14.00">Beta</text>
</g>
<!-- P_H_V1&#45;&gt;P_H -->
<g id="edge4" class="edge">
<title>P_H_V1&#45;&gt;P_H</title>
<path fill="none" stroke="black" d="M296.97,-409.37C298.92,-393.84 301.14,-376.07 303.08,-360.58"/>
<polygon fill="black" stroke="black" points="306.54,-361.11 304.31,-350.75 299.6,-360.24 306.54,-361.11"/>
</g>
<!-- P_D -->
<g id="node9" class="node">
<title>P_D</title>
<ellipse fill="none" stroke="black" cx="400" cy="-320.29" rx="28.81" ry="40.66"/>
<text text-anchor="middle" x="400" y="-331.74" font-family="Times,serif" font-size="14.00">P_D</text>
<text text-anchor="middle" x="400" y="-315.24" font-family="Times,serif" font-size="14.00">~</text>
<text text-anchor="middle" x="400" y="-298.74" font-family="Times,serif" font-size="14.00">Beta</text>
</g>
<!-- P_D&#45;&gt;D -->
<g id="edge8" class="edge">
<title>P_D&#45;&gt;D</title>
<path fill="none" stroke="black" d="M384.87,-285.29C378.6,-272.77 370.74,-258.81 362,-247.13 324.47,-196.99 271.43,-148.13 234.62,-116.76"/>
<polygon fill="black" stroke="black" points="237.15,-114.32 227.25,-110.54 232.63,-119.66 237.15,-114.32"/>
</g>
<!-- P_H&#45;&gt;H -->
<g id="edge5" class="edge">
<title>P_H&#45;&gt;H</title>
<path fill="none" stroke="black" d="M290.54,-291.32C280.38,-276.74 266.52,-259.42 251,-247.13 236.86,-235.94 219.66,-226.62 203.44,-219.28"/>
<polygon fill="black" stroke="black" points="204.92,-216.11 194.36,-215.35 202.14,-222.53 204.92,-216.11"/>
</g>
</g>
</svg>
