<?xml version="1.0" encoding="UTF-8" standalone="no"?>
<!DOCTYPE svg PUBLIC "-//W3C//DTD SVG 1.1//EN"
 "http://www.w3.org/Graphics/SVG/1.1/DTD/svg11.dtd">
<!-- Generated by graphviz version 12.0.0 (0)
 -->
<!-- Pages: 1 -->
<svg width="248pt" height="268pt"
 viewBox="0.00 0.00 248.00 267.63" xmlns="http://www.w3.org/2000/svg" xmlns:xlink="http://www.w3.org/1999/xlink">
<g id="graph0" class="graph" transform="scale(1 1) rotate(0) translate(4 263.63)">
<polygon fill="white" stroke="none" points="-4,4 -4,-263.63 244,-263.63 244,4 -4,4"/>
<g id="clust1" class="cluster">
<title>cluster43 x 2</title>
<path fill="none" stroke="black" d="M20,-129.82C20,-129.82 70,-129.82 70,-129.82 76,-129.82 82,-135.82 82,-141.82 82,-141.82 82,-239.63 82,-239.63 82,-245.63 76,-251.63 70,-251.63 70,-251.63 20,-251.63 20,-251.63 14,-251.63 8,-245.63 8,-239.63 8,-239.63 8,-141.82 8,-141.82 8,-135.82 14,-129.82 20,-129.82"/>
<text text-anchor="middle" x="56.75" y="-137.02" font-family="Times,serif" font-size="14.00">43 x 2</text>
</g>
<g id="clust2" class="cluster">
<title>clusteri (1049)</title>
<path fill="none" stroke="black" d="M102,-8C102,-8 220,-8 220,-8 226,-8 232,-14 232,-20 232,-20 232,-227.73 232,-227.73 232,-233.73 226,-239.73 220,-239.73 220,-239.73 102,-239.73 102,-239.73 96,-239.73 90,-233.73 90,-227.73 90,-227.73 90,-20 90,-20 90,-14 96,-8 102,-8"/>
<text text-anchor="middle" x="202.25" y="-15.2" font-family="Times,serif" font-size="14.00">i (1049)</text>
</g>
<!-- P_D -->
<g id="node1" class="node">
<title>P_D</title>
<ellipse fill="none" stroke="black" cx="45" cy="-202.98" rx="28.81" ry="40.66"/>
<text text-anchor="middle" x="45" y="-214.43" font-family="Times,serif" font-size="14.00">P_D</text>
<text text-anchor="middle" x="45" y="-197.93" font-family="Times,serif" font-size="14.00">~</text>
<text text-anchor="middle" x="45" y="-181.43" font-family="Times,serif" font-size="14.00">Beta</text>
</g>
<!-- D -->
<g id="node2" class="node">
<title>D</title>
<ellipse fill="lightgrey" stroke="black" cx="145" cy="-81.16" rx="47.38" ry="40.66"/>
<text text-anchor="middle" x="145" y="-92.61" font-family="Times,serif" font-size="14.00">D</text>
<text text-anchor="middle" x="145" y="-76.11" font-family="Times,serif" font-size="14.00">~</text>
<text text-anchor="middle" x="145" y="-59.61" font-family="Times,serif" font-size="14.00">Bernoulli</text>
</g>
<!-- P_D&#45;&gt;D -->
<g id="edge1" class="edge">
<title>P_D&#45;&gt;D</title>
<path fill="none" stroke="black" d="M60.74,-168.31C67.55,-155.56 76.21,-141.35 86,-129.82 90.26,-124.8 95.1,-119.93 100.14,-115.33"/>
<polygon fill="black" stroke="black" points="102.33,-118.07 107.59,-108.88 97.74,-112.78 102.33,-118.07"/>
</g>
<!-- H -->
<g id="node3" class="node">
<title>H</title>
<path fill="lightgrey" stroke="black" d="M140,-231.73C140,-231.73 110,-231.73 110,-231.73 104,-231.73 98,-225.73 98,-219.73 98,-219.73 98,-186.23 98,-186.23 98,-180.23 104,-174.23 110,-174.23 110,-174.23 140,-174.23 140,-174.23 146,-174.23 152,-180.23 152,-186.23 152,-186.23 152,-219.73 152,-219.73 152,-225.73 146,-231.73 140,-231.73"/>
<text text-anchor="middle" x="125" y="-214.43" font-family="Times,serif" font-size="14.00">H</text>
<text text-anchor="middle" x="125" y="-197.93" font-family="Times,serif" font-size="14.00">~</text>
<text text-anchor="middle" x="125" y="-181.43" font-family="Times,serif" font-size="14.00">Data</text>
</g>
<!-- H&#45;&gt;D -->
<g id="edge2" class="edge">
<title>H&#45;&gt;D</title>
<path fill="none" stroke="black" d="M129.69,-173.88C131.73,-161.66 134.19,-146.94 136.53,-132.91"/>
<polygon fill="black" stroke="black" points="139.93,-133.8 138.12,-123.36 133.02,-132.65 139.93,-133.8"/>
</g>
<!-- S -->
<g id="node4" class="node">
<title>S</title>
<path fill="lightgrey" stroke="black" d="M212,-231.73C212,-231.73 182,-231.73 182,-231.73 176,-231.73 170,-225.73 170,-219.73 170,-219.73 170,-186.23 170,-186.23 170,-180.23 176,-174.23 182,-174.23 182,-174.23 212,-174.23 212,-174.23 218,-174.23 224,-180.23 224,-186.23 224,-186.23 224,-219.73 224,-219.73 224,-225.73 218,-231.73 212,-231.73"/>
<text text-anchor="middle" x="197" y="-214.43" font-family="Times,serif" font-size="14.00">S</text>
<text text-anchor="middle" x="197" y="-197.93" font-family="Times,serif" font-size="14.00">~</text>
<text text-anchor="middle" x="197" y="-181.43" font-family="Times,serif" font-size="14.00">Data</text>
</g>
<!-- S&#45;&gt;D -->
<g id="edge3" class="edge">
<title>S&#45;&gt;D</title>
<path fill="none" stroke="black" d="M184.81,-173.88C179.1,-160.73 172.14,-144.7 165.65,-129.74"/>
<polygon fill="black" stroke="black" points="169.05,-128.77 161.85,-120.99 162.62,-131.56 169.05,-128.77"/>
</g>
</g>
</svg>
