<?xml version="1.0" encoding="UTF-8" standalone="no"?>
<!DOCTYPE svg PUBLIC "-//W3C//DTD SVG 1.1//EN"
 "http://www.w3.org/Graphics/SVG/1.1/DTD/svg11.dtd">
<!-- Generated by graphviz version 8.1.0 (0)
 -->
<!-- Title: simple_dag Pages: 1 -->
<svg width="238pt" height="245pt"
 viewBox="0.00 0.00 238.00 244.50" xmlns="http://www.w3.org/2000/svg" xmlns:xlink="http://www.w3.org/1999/xlink">
<g id="graph0" class="graph" transform="scale(1 1) rotate(0) translate(4 240.5)">
<title>simple_dag</title>
<polygon fill="white" stroke="none" points="-4,4 -4,-240.5 234,-240.5 234,4 -4,4"/>
<g id="clust1" class="cluster">
<title>cluster_hierarchy</title>
<polygon fill="none" stroke="black" points="8,-8 8,-228.5 222,-228.5 222,-8 8,-8"/>
<text text-anchor="middle" x="115" y="-211.2" font-family="Times,serif" font-size="14.00">Center{i}</text>
</g>
<!-- C1 -->
<g id="node1" class="node">
<title>C1</title>
<ellipse fill="none" stroke="black" cx="187" cy="-178" rx="27" ry="18"/>
<text text-anchor="middle" x="187" y="-172.95" font-family="Times,serif" font-size="14.00">C1</text>
</g>
<!-- X -->
<g id="node2" class="node">
<title>X</title>
<ellipse fill="none" stroke="black" cx="107" cy="-106" rx="27" ry="18"/>
<text text-anchor="middle" x="107" y="-100.95" font-family="Times,serif" font-size="14.00">X</text>
</g>
<!-- C1&#45;&gt;X -->
<g id="edge1" class="edge">
<title>C1&#45;&gt;X</title>
<path fill="none" stroke="black" d="M171.19,-163.17C159.69,-153.1 143.91,-139.29 130.87,-127.89"/>
<polygon fill="black" stroke="black" points="133.6,-124.75 123.77,-120.8 128.99,-130.02 133.6,-124.75"/>
</g>
<!-- Y -->
<g id="node3" class="node">
<title>Y</title>
<ellipse fill="none" stroke="black" cx="130" cy="-34" rx="27" ry="18"/>
<text text-anchor="middle" x="130" y="-28.95" font-family="Times,serif" font-size="14.00">Y</text>
</g>
<!-- C1&#45;&gt;Y -->
<g id="edge2" class="edge">
<title>C1&#45;&gt;Y</title>
<path fill="none" stroke="black" d="M180.24,-160.15C170.47,-135.81 152.31,-90.57 140.7,-61.67"/>
<polygon fill="black" stroke="black" points="143.73,-60.8 136.75,-52.82 137.23,-63.41 143.73,-60.8"/>
</g>
<!-- X&#45;&gt;Y -->
<g id="edge7" class="edge">
<title>X&#45;&gt;Y</title>
<path fill="none" stroke="black" d="M112.57,-88.05C115.14,-80.23 118.25,-70.75 121.14,-61.98"/>
<polygon fill="black" stroke="black" points="124.69,-63.38 124.48,-52.79 118.04,-61.2 124.69,-63.38"/>
</g>
<!-- C2 -->
<g id="node4" class="node">
<title>C2</title>
<ellipse fill="none" stroke="black" cx="115" cy="-178" rx="27" ry="18"/>
<text text-anchor="middle" x="115" y="-172.95" font-family="Times,serif" font-size="14.00">C2</text>
</g>
<!-- C2&#45;&gt;X -->
<g id="edge3" class="edge">
<title>C2&#45;&gt;X</title>
<path fill="none" stroke="black" d="M113.02,-159.7C112.17,-152.24 111.15,-143.32 110.2,-134.97"/>
<polygon fill="black" stroke="black" points="113.57,-134.64 108.95,-125.1 106.61,-135.44 113.57,-134.64"/>
</g>
<!-- C2&#45;&gt;Y -->
<g id="edge4" class="edge">
<title>C2&#45;&gt;Y</title>
<path fill="none" stroke="black" d="M126.02,-161.13C132.35,-151.01 139.69,-137.33 143,-124 148.05,-103.64 144.22,-80.14 139.44,-62.4"/>
<polygon fill="black" stroke="black" points="142.53,-61.51 136.33,-52.92 135.82,-63.5 142.53,-61.51"/>
</g>
<!-- C3 -->
<g id="node5" class="node">
<title>C3</title>
<ellipse fill="none" stroke="black" cx="43" cy="-178" rx="27" ry="18"/>
<text text-anchor="middle" x="43" y="-172.95" font-family="Times,serif" font-size="14.00">C3</text>
</g>
<!-- C3&#45;&gt;X -->
<g id="edge5" class="edge">
<title>C3&#45;&gt;X</title>
<path fill="none" stroke="black" d="M56.57,-162.15C65.14,-152.78 76.39,-140.48 86.08,-129.88"/>
<polygon fill="black" stroke="black" points="88.28,-132.57 92.45,-122.82 83.12,-127.84 88.28,-132.57"/>
</g>
<!-- C3&#45;&gt;Y -->
<g id="edge6" class="edge">
<title>C3&#45;&gt;Y</title>
<path fill="none" stroke="black" d="M45.62,-159.78C49.08,-140.95 56.54,-110.47 71,-88 79.35,-75.03 91.69,-63.26 102.93,-54.12"/>
<polygon fill="black" stroke="black" points="104.86,-56.28 110.62,-47.39 100.57,-50.75 104.86,-56.28"/>
</g>
</g>
</svg>
